<svg xmlns="http://www.w3.org/2000/svg" fill-rule="evenodd" stroke-linejoin="round" stroke-miterlimit="2" clip-rule="evenodd" viewBox="0 0 64 64"><rect width="64" height="64" fill="none"/><path fill="#bed8fb" d="M284.8,132L252,132C249.792,132 248,130.208 248,128L248,88C248,85.792 249.792,84 252,84L292,84C294.208,84 296,85.792 296,88L296,138.297C296,138.715 295.739,139.089 295.347,139.235C294.954,139.38 294.513,139.265 294.241,138.948C290.907,135.058 284,127 284,127L284.8,132Z" transform="translate(-240 -80)"/><path fill="#9dc6fb" d="M296,136.667L296,138.297C296,138.715 295.739,139.089 295.347,139.235C294.954,139.38 294.513,139.265 294.241,138.948L286.571,130L286,125L296,136.667ZM250.354,84.354C250.127,84.856 250,85.413 250,86L250,126C250,128.208 251.792,130 254,130L284.48,130L284.8,132L252,132C249.792,132 248,130.208 248,128L248,88C248,86.379 248.966,84.982 250.354,84.354Z" transform="translate(-240 -80)"/><path fill="#f9f6f9" d="M269.152,96.273C269.376,96.233 269.593,96.374 269.648,96.595C269.649,96.595 269.649,96.596 269.649,96.596C269.687,96.747 269.661,96.907 269.578,97.039C269.495,97.171 269.362,97.263 269.209,97.294C266.111,97.957 263.544,99.699 262.145,102L263.141,102C265.145,100.333 268.368,99.25 272,99.25C275.632,99.25 278.855,100.332 280.859,102L281.855,102C280.458,99.701 277.894,97.959 274.799,97.294C274.645,97.263 274.511,97.169 274.427,97.036C274.343,96.903 274.317,96.742 274.356,96.589C274.353,96.588 274.353,96.588 274.353,96.588C274.407,96.37 274.621,96.232 274.842,96.271C279.097,97.051 282.845,99.273 283.778,99.858C283.924,99.952 284.043,100.083 284.122,100.237C284.618,101.201 286.468,104.874 287,107C287.564,109.254 287.889,114.128 287.976,115.582C287.991,115.838 287.908,116.091 287.743,116.287C287.033,116.989 284.835,118.85 280.404,120.013C279.947,120.137 279.466,119.921 279.254,119.497C279.128,119.255 278.989,118.978 278.86,118.719C278.74,118.479 278.721,118.2 278.809,117.946C278.897,117.692 279.083,117.484 279.326,117.369C281.234,116.45 282.838,115.178 283.996,113.671C283.987,113.347 283.965,113.026 283.931,112.708C281.466,115.282 277.043,117 272,117C266.957,117 262.534,115.282 260.069,112.708C260.035,113.026 260.013,113.347 260.004,113.671C261.162,115.178 262.766,116.45 264.673,117.373C264.914,117.487 265.1,117.695 265.187,117.947C265.274,118.2 265.256,118.478 265.136,118.717C265.011,118.978 264.872,119.255 264.75,119.499C264.538,119.925 264.054,120.142 263.594,120.018C259.166,118.85 256.969,116.987 256.262,116.283C256.098,116.088 256.014,115.837 256.029,115.583C256.111,114.128 256.436,109.254 257,107C257.532,104.874 259.382,101.201 259.877,100.237C259.957,100.082 260.075,99.951 260.221,99.856C261.154,99.273 264.9,97.053 269.152,96.273Z" transform="translate(-240 -80)"/><path d="M273.855,96.542C273.857,96.517 273.862,96.492 273.868,96.467C273.985,95.994 274.45,95.693 274.932,95.779C279.27,96.575 283.093,98.838 284.043,99.434C284.045,99.435 284.047,99.437 284.049,99.438C284.268,99.58 284.447,99.776 284.567,100.009C285.071,100.987 286.945,104.719 287.485,106.879C288.055,109.157 288.387,114.083 288.475,115.552C288.498,115.936 288.373,116.315 288.125,116.609C288.115,116.62 288.105,116.631 288.094,116.642C287.362,117.366 285.101,119.298 280.535,120.496C279.848,120.682 279.125,120.358 278.81,119.728C278.683,119.484 278.543,119.204 278.412,118.943C278.232,118.582 278.205,118.164 278.336,117.783C278.468,117.402 278.747,117.09 279.109,116.918C280.449,116.273 281.634,115.448 282.609,114.485C279.972,116.332 276.197,117.5 272,117.5C267.803,117.5 264.027,116.332 261.391,114.485C262.365,115.448 263.55,116.274 264.887,116.921C265.25,117.093 265.528,117.405 265.66,117.784C265.791,118.164 265.763,118.581 265.587,118.933C265.461,119.197 265.321,119.476 265.198,119.723C264.879,120.362 264.153,120.687 263.467,120.501C258.898,119.297 256.638,117.364 255.909,116.637C255.899,116.627 255.889,116.616 255.88,116.605C255.633,116.312 255.508,115.936 255.53,115.555C255.613,114.085 255.945,109.158 256.515,106.879C257.055,104.719 258.929,100.987 259.432,100.009C259.551,99.777 259.729,99.579 259.956,99.432C260.907,98.838 264.727,96.577 269.061,95.781L269.064,95.781C269.525,95.699 269.971,95.971 270.114,96.409C270.122,96.431 270.129,96.453 270.134,96.476C270.205,96.759 270.156,97.059 270.001,97.306C269.845,97.552 269.596,97.725 269.314,97.783C266.837,98.313 264.712,99.559 263.304,101.241C265.396,99.725 268.514,98.75 272,98.75C275.486,98.75 278.605,99.725 280.696,101.241C279.29,99.561 277.168,98.315 274.698,97.784C274.41,97.725 274.16,97.551 274.004,97.302C273.861,97.075 273.808,96.804 273.855,96.542ZM269.147,96.783C265.017,97.563 261.394,99.713 260.494,100.275C260.421,100.322 260.362,100.388 260.322,100.466C259.834,101.414 258.008,105.028 257.485,107.121C256.928,109.351 256.609,114.172 256.529,115.612C256.521,115.733 256.559,115.851 256.633,115.946C257.335,116.641 259.468,118.413 263.725,119.535C263.955,119.597 264.197,119.489 264.303,119.276C264.424,119.034 264.561,118.759 264.689,118.493C264.748,118.374 264.758,118.236 264.714,118.111C264.671,117.985 264.579,117.882 264.455,117.823C262.474,116.864 260.81,115.541 259.608,113.976C259.538,113.885 259.502,113.773 259.505,113.658C259.514,113.32 259.536,112.986 259.572,112.655C259.592,112.462 259.723,112.298 259.908,112.235C260.092,112.172 260.295,112.222 260.43,112.362C262.819,114.857 267.113,116.5 272,116.5C276.887,116.5 281.181,114.857 283.57,112.362C283.705,112.222 283.908,112.172 284.092,112.235C284.277,112.298 284.408,112.462 284.428,112.655C284.464,112.986 284.486,113.32 284.495,113.658C284.498,113.773 284.462,113.885 284.392,113.976C283.19,115.541 281.525,116.865 279.54,117.821C279.419,117.878 279.325,117.982 279.282,118.109C279.238,118.236 279.247,118.376 279.307,118.496C279.435,118.752 279.572,119.027 279.701,119.274C279.806,119.485 280.046,119.592 280.278,119.529C284.532,118.413 286.666,116.642 287.372,115.949C287.447,115.853 287.484,115.734 287.477,115.612C287.391,114.174 287.072,109.351 286.515,107.121C285.992,105.028 284.166,101.415 283.678,100.467C283.639,100.39 283.579,100.325 283.512,100.281C282.606,99.713 278.985,97.565 274.861,96.783C274.871,96.794 274.886,96.802 274.904,96.806C278.143,97.502 280.82,99.335 282.282,101.74C282.376,101.895 282.379,102.088 282.291,102.245C282.202,102.403 282.036,102.5 281.855,102.5L280.859,102.5C280.742,102.5 280.629,102.459 280.539,102.384C278.609,100.778 275.499,99.75 272,99.75C268.501,99.75 265.391,100.778 263.461,102.384C263.371,102.459 263.258,102.5 263.141,102.5L262.145,102.5C261.964,102.5 261.798,102.403 261.709,102.245C261.621,102.088 261.624,101.895 261.718,101.74C263.182,99.332 265.862,97.499 269.108,96.805C269.123,96.802 269.137,96.794 269.147,96.783ZM269.182,96.776L269.181,96.776C269.214,96.87 269.271,96.953 269.396,97.026C269.298,96.969 269.223,96.881 269.182,96.776ZM274.722,96.249C274.713,96.23 274.684,96.161 274.489,96.107C274.581,96.133 274.661,96.183 274.722,96.249Z" transform="translate(-240 -80)"/><circle cx="267" cy="110" r="3" fill="#bed8fb" transform="matrix(.83333 0 0 1 -195 -80)"/><path d="M267,106.5C265.045,106.5 263.4,108.045 263.4,110C263.4,111.955 265.045,113.5 267,113.5C268.955,113.5 270.6,111.955 270.6,110C270.6,108.045 268.955,106.5 267,106.5ZM267,107.5C268.357,107.5 269.4,108.643 269.4,110C269.4,111.357 268.357,112.5 267,112.5C265.643,112.5 264.6,111.357 264.6,110C264.6,108.643 265.643,107.5 267,107.5Z" transform="matrix(.83333 0 0 1 -195 -80)"/><circle cx="267" cy="110" r="3" fill="#bed8fb" transform="matrix(.83333 0 0 1 -186 -80)"/><path d="M267,106.5C265.045,106.5 263.4,108.045 263.4,110C263.4,111.955 265.045,113.5 267,113.5C268.955,113.5 270.6,111.955 270.6,110C270.6,108.045 268.955,106.5 267,106.5ZM267,107.5C268.357,107.5 269.4,108.643 269.4,110C269.4,111.357 268.357,112.5 267,112.5C265.643,112.5 264.6,111.357 264.6,110C264.6,108.643 265.643,107.5 267,107.5Z" transform="matrix(.83333 0 0 1 -186 -80)"/><path d="M284.774,128.671L285.294,131.921C285.317,132.066 285.275,132.213 285.18,132.324C285.085,132.436 284.946,132.5 284.8,132.5L252,132.5C249.516,132.5 247.5,130.484 247.5,128C247.5,128 247.5,88 247.5,88C247.5,85.516 249.516,83.5 252,83.5C252,83.5 292,83.5 292,83.5C294.484,83.5 296.5,85.516 296.5,88C296.5,88 296.5,127.493 296.5,138.297C296.5,138.924 296.109,139.486 295.52,139.704C294.932,139.921 294.27,139.75 293.861,139.273L284.774,128.671ZM284.214,131.5L283.506,127.079C283.471,126.858 283.587,126.64 283.79,126.546C283.993,126.452 284.234,126.505 284.38,126.675C284.38,126.675 291.287,134.733 294.62,138.622C294.757,138.781 294.977,138.838 295.173,138.766C295.37,138.693 295.5,138.506 295.5,138.297C295.5,127.493 295.5,88 295.5,88C295.5,86.068 293.932,84.5 292,84.5L252,84.5C250.068,84.5 248.5,86.068 248.5,88L248.5,128C248.5,129.932 250.068,131.5 252,131.5L284.214,131.5Z" transform="translate(-240 -80)"/></svg>